<svg width="48" height="38" viewBox="0 0 48 38" fill="none" xmlns="http://www.w3.org/2000/svg">
<path d="M26.338 9.683C33.7323 9.683 37.9253 14.576 38.5367 20.4863H38.7233C39.8533 20.4848 40.9725 20.7059 42.017 21.1369C43.0615 21.568 44.0108 22.2006 44.8108 22.9987C45.6108 23.7967 46.2457 24.7445 46.6794 25.7879C47.113 26.8314 47.3368 27.95 47.338 29.08C47.3365 30.2098 47.1124 31.3282 46.6787 32.3713C46.2449 33.4145 45.6099 34.362 44.81 35.1598C44.0101 35.9576 43.0608 36.59 42.0165 37.0209C40.9721 37.4519 39.8531 37.6729 38.7233 37.6713H13.9527C12.8229 37.6729 11.7039 37.4519 10.6596 37.0209C9.61521 36.59 8.66596 35.9576 7.86602 35.1598C7.06607 34.362 6.43109 33.4145 5.99734 32.3713C5.56358 31.3282 5.33954 30.2098 5.33801 29.08C5.33923 27.95 5.56305 26.8314 5.99667 25.7879C6.43029 24.7445 7.06522 23.7967 7.86519 22.9987C8.66517 22.2006 9.61452 21.568 10.659 21.1369C11.7035 20.7059 12.8227 20.4848 13.9527 20.4863H14.1393C14.753 14.5363 18.9437 9.683 26.3357 9.683H26.338ZM6.19201 19.378C6.35407 19.769 6.3689 20.2056 6.23376 20.6067C6.09861 21.0078 5.82266 21.3464 5.45701 21.5597L5.24468 21.6647L3.08401 22.5607C2.67448 22.7299 2.21603 22.7374 1.80116 22.5818C1.38629 22.4261 1.0459 22.1189 0.84869 21.7221C0.651478 21.3253 0.612127 20.8685 0.738578 20.4438C0.865029 20.0192 1.14787 19.6583 1.53001 19.434L1.74468 19.3267L3.90534 18.433C4.3339 18.2552 4.81552 18.2549 5.24432 18.4321C5.67312 18.6093 6.014 18.9495 6.19201 19.378ZM21.3283 8.101L20.927 8.23633C16.7643 9.70633 13.7823 12.9147 12.492 17.1567L12.3287 17.74L12.1933 18.2953L11.7127 18.3863C10.3167 18.6795 8.99247 19.2457 7.81601 20.0523C6.74657 18.2142 6.3471 16.0623 6.68558 13.9628C7.02407 11.8633 8.07958 9.94594 9.67251 8.53704C11.2654 7.12813 13.2974 6.31471 15.4225 6.23521C17.5476 6.15571 19.6346 6.81504 21.3283 8.101ZM2.86001 8.17333L3.10734 8.255L5.26801 9.151C5.6743 9.32131 6.00141 9.63859 6.18403 10.0395C6.36665 10.4404 6.39134 10.8954 6.25318 11.3138C6.11501 11.7321 5.82416 12.0829 5.43869 12.2962C5.05321 12.5095 4.60148 12.5695 4.17368 12.4643L3.93334 12.3873L1.77268 11.4913C1.36746 11.3205 1.04141 11.0034 0.859395 10.6031C0.67738 10.2028 0.652745 9.74862 0.790392 9.33097C0.92804 8.91333 1.21788 8.56281 1.60224 8.34916C1.9866 8.13552 2.4373 8.07441 2.86468 8.178L2.86001 8.17333ZM11.7617 1.206L11.869 1.41833L12.7627 3.58133C12.9294 3.99049 12.9353 4.44759 12.779 4.86087C12.6227 5.27415 12.3158 5.61301 11.9201 5.80943C11.5243 6.00585 11.0688 6.04528 10.6452 5.91981C10.2215 5.79434 9.86101 5.51326 9.63601 5.133L9.52868 4.92066L8.63501 2.75766C8.46824 2.3485 8.46242 1.8914 8.61871 1.47812C8.775 1.06484 9.08184 0.725978 9.47763 0.529561C9.87341 0.333144 10.3289 0.293712 10.7525 0.41918C11.1762 0.544648 11.5367 0.82573 11.7617 1.206ZM21.921 0.461662C22.3084 0.622454 22.6252 0.917042 22.8136 1.29178C23.0021 1.66651 23.0496 2.09646 22.9477 2.50333L22.866 2.74833L21.9723 4.91133C21.802 5.31762 21.4847 5.64473 21.0838 5.82735C20.6829 6.00997 20.2279 6.03466 19.8096 5.8965C19.3913 5.75833 19.0404 5.46748 18.8272 5.08201C18.6139 4.69653 18.5538 4.2448 18.659 3.817L18.7383 3.56966L19.6343 1.409C19.7223 1.19663 19.8512 1.00367 20.0137 0.841127C20.1762 0.678584 20.3691 0.549645 20.5814 0.461674C20.7938 0.373704 21.0214 0.328425 21.2512 0.328423C21.4811 0.32842 21.7087 0.373695 21.921 0.461662Z" fill="black"/>
</svg>
