<svg width="48" height="38" viewBox="0 0 48 38" fill="none" xmlns="http://www.w3.org/2000/svg">
<path d="M26.338 9.69466C33.73 9.69466 37.9253 14.59 38.5343 20.498H38.721C39.851 20.4965 40.9702 20.7175 42.0147 21.1486C43.0592 21.5797 44.0085 22.2123 44.8085 23.0103C45.6085 23.8084 46.2434 24.7562 46.677 25.7996C47.1106 26.8431 47.3344 27.9617 47.3357 29.0917C47.3344 30.2216 47.1106 31.3403 46.677 32.3837C46.2434 33.4272 45.6085 34.375 44.8085 35.173C44.0085 35.971 43.0592 36.6036 42.0147 37.0347C40.9702 37.4658 39.851 37.6869 38.721 37.6853H13.9527C12.8227 37.6869 11.7035 37.4658 10.659 37.0347C9.61451 36.6036 8.66516 35.971 7.86519 35.173C7.06521 34.375 6.43028 33.4272 5.99666 32.3837C5.56304 31.3403 5.33923 30.2216 5.338 29.0917C5.33923 27.9617 5.56304 26.8431 5.99666 25.7996C6.43028 24.7562 7.06521 23.8084 7.86519 23.0103C8.66516 22.2123 9.61451 21.5797 10.659 21.1486C11.7035 20.7175 12.8227 20.4965 13.9527 20.498H14.1393C14.753 14.5503 18.946 9.69466 26.338 9.69466ZM11.3743 0.344992C13.2337 0.444567 15.0431 0.98267 16.6547 1.91533C19.0207 3.27693 20.8415 5.4168 21.8067 7.97032C17.1773 9.28399 13.864 12.6417 12.4873 17.18L12.3263 17.754L12.191 18.3093L11.7103 18.398C9.08228 18.9542 6.75228 20.4615 5.16767 22.6307C3.49042 21.7421 2.05211 20.4623 0.97467 18.8997C0.822452 18.6787 0.723084 18.4257 0.684246 18.1602C0.645409 17.8947 0.668142 17.6238 0.750689 17.3685C0.833235 17.1132 0.973384 16.8803 1.1603 16.6878C1.34722 16.4953 1.5759 16.3484 1.82867 16.2583C5.66234 14.8863 7.725 13.3417 8.908 11.09C10.196 8.62832 10.434 6.01733 9.57767 2.50799C9.51274 2.24246 9.51092 1.96541 9.57235 1.69905C9.63378 1.43268 9.75675 1.18441 9.93141 0.974137C10.1061 0.763861 10.3276 0.597425 10.5781 0.48817C10.8287 0.378915 11.1014 0.32988 11.3743 0.344992Z" fill="black"/>
</svg>
