<svg width="42" height="29" viewBox="0 0 42 29" fill="none" xmlns="http://www.w3.org/2000/svg">
<path d="M21 0.335667C28.3943 0.335667 32.5873 5.22867 33.1963 11.139H33.383C34.513 11.1372 35.6322 11.3579 36.6768 11.7887C37.7215 12.2195 38.671 12.8519 39.4712 13.6497C40.2714 14.4475 40.9065 15.3951 41.3405 16.4385C41.7744 17.4818 41.9985 18.6004 42 19.7303C41.9988 20.8605 41.7749 21.9793 41.3411 23.0229C40.9074 24.0665 40.2722 25.0144 39.472 25.8125C38.6718 26.6105 37.7221 27.2431 36.6774 27.674C35.6326 28.105 34.5132 28.3258 33.383 28.324H8.617C7.48685 28.3258 6.3674 28.105 5.32263 27.674C4.27786 27.2431 3.32823 26.6105 2.52801 25.8125C1.72778 25.0144 1.09265 24.0665 0.658881 23.0229C0.225116 21.9793 0.0012246 20.8605 0 19.7303C0.00153105 18.6006 0.225571 17.4822 0.659327 16.439C1.09308 15.3958 1.72806 14.4483 2.52801 13.6505C3.32795 12.8527 4.2772 12.2203 5.32155 11.7894C6.3659 11.3585 7.4849 11.1375 8.61467 11.139H8.80133C9.41733 5.18667 13.608 0.333334 21 0.333334V0.335667Z" fill="black"/>
</svg>
